# xmcd CD database file
#
# Track frame offsets:
#	150
#	26254
#	49720
#	75416
#	102751
#	128674
#	158532
#	184510
#	206546
#	231174
#
# Disc length: 3326 seconds
#
# Revision: 0
# Processed by: cddbd v1.5.2PL0 Copyright (c) Steve Scherf et al.
# Submitted via: CDex 1.70beta2
#
DISCID=680cfc0a
DTITLE=小林 香織 - Glow
DYEAR=2007
DGENRE=Jazz
TTITLE0=AIRFLOW
TTITLE1=WARMTH
TTITLE2=PASSING LANE
TTITLE3=WALK IN THE NIGHT
TTITLE4=DAWN IVORY
TTITLE5=MONOCHROME
TTITLE6=EXPLORE THE FIELD
TTITLE7=LULLABY CHILD
TTITLE8=TOY'S JAM
TTITLE9=HOW DEEP IS YOUR LOVE
EXTD=YEAR: 2007
EXTT0=
EXTT1=
EXTT2=
EXTT3=
EXTT4=
EXTT5=
EXTT6=
EXTT7=
EXTT8=
EXTT9=
PLAYORDER=
